<svg width="40" height="41" viewBox="0 0 40 41" fill="none" xmlns="http://www.w3.org/2000/svg">
<rect x="0.5" y="1" width="39" height="39" rx="19.5" fill="white"/>
<rect x="0.5" y="1" width="39" height="39" rx="19.5" stroke="#E4E7EC"/>
<path fill-rule="evenodd" clip-rule="evenodd" d="M20 12.1667C19.6029 12.1667 19.2108 12.2544 18.8515 12.4235L13.5807 14.9039C12.4124 15.4537 11.6667 16.6287 11.6667 17.9199V23.8334C11.6667 24.6649 12.1469 25.4216 12.8992 25.7756L18.8515 28.5767C19.2108 28.7458 19.6029 28.8334 20 28.8334C20.3971 28.8334 20.7892 28.7458 21.1485 28.5767L27.1008 25.7756C27.8531 25.4216 28.3333 24.6649 28.3333 23.8334V17.9199C28.3333 16.6287 27.5876 15.4537 26.4193 14.9039L21.1485 12.4235C20.7892 12.2544 20.3971 12.1667 20 12.1667ZM26.6667 22.4851L20.8333 19.5684V14.1172L25.7097 16.4119C26.2938 16.6868 26.6667 17.2743 26.6667 17.9199V22.4851ZM20 21.0151L26.4452 24.2377C26.428 24.2487 26.41 24.2587 26.3912 24.2676L20.4388 27.0687C20.3016 27.1333 20.1517 27.1667 20 27.1667C19.8483 27.1667 19.6984 27.1333 19.5612 27.0687L13.6089 24.2676C13.59 24.2587 13.572 24.2487 13.5548 24.2377L20 21.0151ZM19.1667 19.5684L13.3333 22.4851V17.9199C13.3333 17.2743 13.7062 16.6868 14.2903 16.4119L19.1667 14.1172V19.5684Z" fill="black"/>
</svg>