<svg width="40" height="40" viewBox="0 0 40 40" fill="none" xmlns="http://www.w3.org/2000/svg">
<rect width="40" height="40" rx="20" fill="#F0F2F5"/>
<path fill-rule="evenodd" clip-rule="evenodd" d="M16.6667 10.8333C17.1269 10.8333 17.5 11.2063 17.5 11.6666V12.4999H22.5V11.6666C22.5 11.2063 22.8731 10.8333 23.3333 10.8333C23.7936 10.8333 24.1667 11.2063 24.1667 11.6666V12.4999H25C26.841 12.4999 28.3333 13.9923 28.3333 15.8333V24.9999C28.3333 26.8409 26.841 28.3333 25 28.3333H15C13.1591 28.3333 11.6667 26.8409 11.6667 24.9999V15.8333C11.6667 13.9923 13.1591 12.4999 15 12.4999H15.8333V11.6666C15.8333 11.2063 16.2064 10.8333 16.6667 10.8333ZM22.5 14.1666C22.5 14.6268 22.8731 14.9999 23.3333 14.9999C23.7936 14.9999 24.1667 14.6268 24.1667 14.1666H25C25.9205 14.1666 26.6667 14.9128 26.6667 15.8333V16.2499H13.3333V15.8333C13.3333 14.9128 14.0795 14.1666 15 14.1666H15.8333C15.8333 14.6268 16.2064 14.9999 16.6667 14.9999C17.1269 14.9999 17.5 14.6268 17.5 14.1666H22.5ZM26.6667 17.9166H13.3333V24.9999C13.3333 25.9204 14.0795 26.6666 15 26.6666H25C25.9205 26.6666 26.6667 25.9204 26.6667 24.9999V17.9166Z" fill="#344054"/>
</svg>