<svg width="48" height="48" viewBox="0 0 48 48" fill="none" xmlns="http://www.w3.org/2000/svg">
<rect width="48" height="48" rx="24" fill="#F0F2F5"/>
<path d="M18 22C18 21.4477 18.4477 21 19 21H24C24.5523 21 25 21.4477 25 22C25 22.5523 24.5523 23 24 23H19C18.4477 23 18 22.5523 18 22Z" fill="#344054"/>
<path d="M19 25C18.4477 25 18 25.4477 18 26C18 26.5523 18.4477 27 19 27H28C28.5523 27 29 26.5523 29 26C29 25.4477 28.5523 25 28 25H19Z" fill="#344054"/>
<path fill-rule="evenodd" clip-rule="evenodd" d="M14 24C14 18.4772 18.4772 14 24 14C29.5228 14 34 18.4772 34 24C34 29.5228 29.5228 34 24 34C23.1677 34 22.3578 33.8981 21.5827 33.7056L16.0388 33.0126C14.8405 32.8628 14.0077 31.7459 14.2063 30.5547L14.5491 28.4974C14.5511 28.4854 14.5514 28.4733 14.5499 28.4613L14.2944 26.4173C14.1019 25.6422 14 24.8323 14 24ZM24 16C19.5817 16 16 19.5817 16 24C16 24.6866 16.0863 25.3515 16.248 25.9853L16.2636 26.0462L16.5344 28.2132C16.5599 28.4171 16.5557 28.6235 16.5219 28.8262L16.179 30.8835C16.1674 30.9536 16.2164 31.0193 16.2868 31.0281L21.9538 31.7364L22.0147 31.752C22.6485 31.9137 23.3135 32 24 32C28.4183 32 32 28.4183 32 24C32 19.5817 28.4183 16 24 16Z" fill="#344054"/>
</svg>