<svg width="16" height="16" viewBox="0 0 16 16" fill="none" xmlns="http://www.w3.org/2000/svg">
<path d="M2.66675 3.99992C2.66675 3.63173 2.96522 3.33325 3.33341 3.33325H12.6667C13.0349 3.33325 13.3334 3.63173 13.3334 3.99992C13.3334 4.36811 13.0349 4.66659 12.6667 4.66659H3.33341C2.96522 4.66659 2.66675 4.36811 2.66675 3.99992Z" fill="#667185"/>
<path d="M4.00008 7.99992C4.00008 7.63173 4.29856 7.33325 4.66675 7.33325H11.3334C11.7016 7.33325 12.0001 7.63173 12.0001 7.99992C12.0001 8.36811 11.7016 8.66659 11.3334 8.66659H4.66675C4.29856 8.66659 4.00008 8.36811 4.00008 7.99992Z" fill="#667185"/>
<path d="M6.00008 11.3333C5.63189 11.3333 5.33341 11.6317 5.33341 11.9999C5.33341 12.3681 5.63189 12.6666 6.00008 12.6666H10.0001C10.3683 12.6666 10.6667 12.3681 10.6667 11.9999C10.6667 11.6317 10.3683 11.3333 10.0001 11.3333H6.00008Z" fill="#667185"/>
</svg>