<svg width="48" height="48" viewBox="0 0 48 48" fill="none" xmlns="http://www.w3.org/2000/svg">
<rect width="48" height="48" rx="24" fill="#F0F2F5"/>
<path fill-rule="evenodd" clip-rule="evenodd" d="M24 17.5001C21.5147 17.5001 19.5 19.5148 19.5 22.0001C19.5 24.4854 21.5147 26.5001 24 26.5001C26.4853 26.5001 28.5 24.4854 28.5 22.0001C28.5 19.5148 26.4853 17.5001 24 17.5001ZM21.5 22.0001C21.5 20.6194 22.6193 19.5001 24 19.5001C25.3807 19.5001 26.5 20.6194 26.5 22.0001C26.5 23.3808 25.3807 24.5001 24 24.5001C22.6193 24.5001 21.5 23.3808 21.5 22.0001Z" fill="#344054"/>
<path fill-rule="evenodd" clip-rule="evenodd" d="M19.8092 15.5921C22.3469 13.9003 25.653 13.9003 28.1907 15.5921C31.6216 17.8794 32.5848 22.4951 30.3551 25.9637L26.5235 31.9239C25.3426 33.7608 22.6573 33.7608 21.4764 31.9239L17.6449 25.9637C15.4151 22.4951 16.3783 17.8794 19.8092 15.5921ZM20.9186 17.2562C22.7845 16.0123 25.2154 16.0123 27.0813 17.2562C29.604 18.938 30.3122 22.3318 28.6727 24.8821L24.8411 30.8424C24.4475 31.4547 23.5524 31.4547 23.1588 30.8424L19.3272 24.8821C17.6877 22.3318 18.396 18.938 20.9186 17.2562Z" fill="#344054"/>
</svg>