<svg width="48" height="48" viewBox="0 0 48 48" fill="none" xmlns="http://www.w3.org/2000/svg">
<rect width="48" height="48" rx="24" fill="#F0F2F5"/>
<path fill-rule="evenodd" clip-rule="evenodd" d="M35 15.4295C35 14.0406 33.6191 13.0746 32.3144 13.5507L25.0165 16.2138L17.6882 16.7868C15.6063 16.9496 14 18.6864 14 20.7746V22.2255C14 24.3137 15.6063 26.0505 17.6882 26.2133L18.1008 26.2456L18.8045 32.3589C18.9777 33.8641 20.252 35.0001 21.7671 35.0001C23.5542 35.0001 24.9401 33.4389 24.7282 31.6643L24.1375 26.7176L25.0165 26.7864L32.3144 29.4495C33.6191 29.9256 35 28.9595 35 27.5707V15.4295ZM17.8441 18.7807L24.2308 18.2813V24.7188L17.8441 24.2194C16.8032 24.138 16 23.2696 16 22.2255V20.7746C16 19.7305 16.8032 18.8621 17.8441 18.7807ZM33 27.5707L26.2308 25.1005V17.8997L33 15.4295L33 27.5707ZM20.7914 32.1302L20.1323 26.4044L22.1043 26.5586L22.7423 31.9015C22.8121 32.4859 22.3557 33.0001 21.7671 33.0001C21.2681 33.0001 20.8484 32.6259 20.7914 32.1302Z" fill="#344054"/>
</svg>