<svg width="40" height="40" viewBox="0 0 40 40" fill="none" xmlns="http://www.w3.org/2000/svg">
<rect width="40" height="40" rx="20" fill="#F0F2F5"/>
<path fill-rule="evenodd" clip-rule="evenodd" d="M20.8336 12.5001C20.8336 12.0398 20.4605 11.6667 20.0003 11.6667C19.54 11.6667 19.1669 12.0398 19.1669 12.5001V12.9758C16.3402 13.38 14.1669 15.8103 14.1669 18.7492L14.1669 22.0828C14.1669 22.0828 14.167 22.0827 14.1669 22.0828C14.1669 22.0844 14.1663 22.0956 14.1627 22.1175C14.1583 22.1437 14.1506 22.1794 14.1379 22.2253C14.1122 22.3184 14.0711 22.4343 14.0138 22.5713C13.899 22.846 13.737 23.1623 13.5579 23.4814C13.2211 24.0813 13.0513 24.7963 13.1788 25.4761C13.3132 26.1931 13.7747 26.8183 14.5628 27.1184C15.2669 27.3865 16.2041 27.6317 17.4418 27.7776C17.4713 27.8031 17.5061 27.8323 17.5461 27.8643C17.6714 27.9645 17.8503 28.0944 18.0764 28.2236C18.5252 28.4801 19.1888 28.7501 20.0003 28.7501C20.8118 28.7501 21.4753 28.4801 21.9241 28.2236C22.1503 28.0944 22.3292 27.9645 22.4545 27.8643C22.4945 27.8323 22.5293 27.8031 22.5587 27.7776C23.7964 27.6317 24.7336 27.3865 25.4377 27.1184C26.2259 26.8183 26.6874 26.1931 26.8218 25.4761C26.9493 24.7963 26.7795 24.0813 26.4427 23.4814C26.2636 23.1623 26.1016 22.846 25.9867 22.5713C25.9294 22.4343 25.8884 22.3184 25.8626 22.2253C25.8499 22.1794 25.8422 22.1437 25.8379 22.1175C25.8343 22.0956 25.8337 22.0846 25.8336 22.083C25.8336 22.0829 25.8336 22.083 25.8336 22.083L25.8336 22.076V18.7496C25.8336 15.8107 23.6604 13.3801 20.8336 12.9758V12.5001ZM15.8336 18.7492C15.8336 16.4482 17.6989 14.5834 20.0003 14.5834C22.3016 14.5834 24.1669 16.4485 24.1669 18.7496V22.0834C24.1669 22.4692 24.3115 22.8853 24.4491 23.2143C24.5986 23.5718 24.7945 23.9501 24.9894 24.2972C25.1789 24.6348 25.224 24.9537 25.1837 25.169C25.1503 25.3472 25.0612 25.4784 24.8447 25.5609C23.9489 25.9019 22.4369 26.2501 20.0003 26.2501C17.5637 26.2501 16.0516 25.9019 15.1559 25.5609C14.9394 25.4784 14.8503 25.3472 14.8169 25.169C14.7765 24.9537 14.8217 24.6348 15.0112 24.2972C15.2061 23.9501 15.402 23.5718 15.5515 23.2143C15.6891 22.8853 15.8336 22.4692 15.8336 22.0834V18.7492Z" fill="#344054"/>
</svg>