<svg width="32" height="32" viewBox="0 0 32 32" fill="none" xmlns="http://www.w3.org/2000/svg">
<rect x="0.5" y="0.5" width="31" height="31" rx="7.5" fill="white"/>
<rect x="0.5" y="0.5" width="31" height="31" rx="7.5" stroke="#E4E7EC"/>
<path d="M17 10.6667C17 11.219 16.5523 11.6667 16 11.6667C15.4477 11.6667 15 11.219 15 10.6667C15 10.1145 15.4477 9.66675 16 9.66675C16.5523 9.66675 17 10.1145 17 10.6667Z" fill="black"/>
<path d="M17 16.0001C17 16.5524 16.5523 17.0001 16 17.0001C15.4477 17.0001 15 16.5524 15 16.0001C15 15.4478 15.4477 15.0001 16 15.0001C16.5523 15.0001 17 15.4478 17 16.0001Z" fill="black"/>
<path d="M16 22.3334C16.5523 22.3334 17 21.8857 17 21.3334C17 20.7811 16.5523 20.3334 16 20.3334C15.4477 20.3334 15 20.7811 15 21.3334C15 21.8857 15.4477 22.3334 16 22.3334Z" fill="black"/>
</svg>