<svg width="21" height="20" viewBox="0 0 21 20" fill="none" xmlns="http://www.w3.org/2000/svg">
<path d="M11.3333 7.50008C11.3333 7.03984 10.9602 6.66675 10.5 6.66675C10.0397 6.66675 9.66663 7.03984 9.66663 7.50008V9.16675H7.99996C7.53972 9.16675 7.16663 9.53984 7.16663 10.0001C7.16663 10.4603 7.53972 10.8334 7.99996 10.8334H9.66663V12.5001C9.66663 12.9603 10.0397 13.3334 10.5 13.3334C10.9602 13.3334 11.3333 12.9603 11.3333 12.5001V10.8334H13C13.4602 10.8334 13.8333 10.4603 13.8333 10.0001C13.8333 9.53984 13.4602 9.16675 13 9.16675H11.3333V7.50008Z" fill="white"/>
<path fill-rule="evenodd" clip-rule="evenodd" d="M10.5 1.66675C5.89759 1.66675 2.16663 5.39771 2.16663 10.0001C2.16663 14.6025 5.89759 18.3334 10.5 18.3334C15.1023 18.3334 18.8333 14.6025 18.8333 10.0001C18.8333 5.39771 15.1023 1.66675 10.5 1.66675ZM3.83329 10.0001C3.83329 6.31818 6.81806 3.33341 10.5 3.33341C14.1819 3.33341 17.1666 6.31818 17.1666 10.0001C17.1666 13.682 14.1819 16.6667 10.5 16.6667C6.81806 16.6667 3.83329 13.682 3.83329 10.0001Z" fill="white"/>
</svg>