<svg width="20" height="20" viewBox="0 0 20 20" fill="none" xmlns="http://www.w3.org/2000/svg">
<path fill-rule="evenodd" clip-rule="evenodd" d="M6.66666 0.833252C7.1269 0.833252 7.5 1.20635 7.5 1.66659V2.49992H12.5V1.66659C12.5 1.20635 12.8731 0.833252 13.3333 0.833252C13.7936 0.833252 14.1667 1.20635 14.1667 1.66659V2.49992H15C16.8409 2.49992 18.3333 3.9923 18.3333 5.83325V14.9999C18.3333 16.8409 16.8409 18.3333 15 18.3333H5C3.15905 18.3333 1.66666 16.8409 1.66666 14.9999V5.83325C1.66666 3.9923 3.15905 2.49992 5 2.49992H5.83333V1.66659C5.83333 1.20635 6.20643 0.833252 6.66666 0.833252ZM12.5 4.16659C12.5 4.62682 12.8731 4.99992 13.3333 4.99992C13.7936 4.99992 14.1667 4.62682 14.1667 4.16659H15C15.9205 4.16659 16.6667 4.91278 16.6667 5.83325V6.24992H3.33333V5.83325C3.33333 4.91278 4.07952 4.16659 5 4.16659H5.83333C5.83333 4.62682 6.20643 4.99992 6.66666 4.99992C7.1269 4.99992 7.5 4.62682 7.5 4.16659H12.5ZM16.6667 7.91658H3.33333V14.9999C3.33333 15.9204 4.07952 16.6666 5 16.6666H15C15.9205 16.6666 16.6667 15.9204 16.6667 14.9999V7.91658Z" fill="#667185"/>
</svg>