<svg width="20" height="20" viewBox="0 0 20 20" fill="none" xmlns="http://www.w3.org/2000/svg">
<path d="M10 7.08342C10 6.62318 9.6269 6.25008 9.16666 6.25008C8.70643 6.25008 8.33333 6.62318 8.33333 7.08342V11.2501C8.33333 11.7103 8.70643 12.0834 9.16666 12.0834H11.6667C12.1269 12.0834 12.5 11.7103 12.5 11.2501C12.5 10.7898 12.1269 10.4167 11.6667 10.4167H10V7.08342Z" fill="#667185"/>
<path fill-rule="evenodd" clip-rule="evenodd" d="M10 1.66675C5.39762 1.66675 1.66666 5.39771 1.66666 10.0001C1.66666 14.6025 5.39762 18.3334 10 18.3334C14.6024 18.3334 18.3333 14.6025 18.3333 10.0001C18.3333 5.39771 14.6024 1.66675 10 1.66675ZM3.33333 10.0001C3.33333 6.31818 6.3181 3.33341 10 3.33341C13.6819 3.33341 16.6667 6.31818 16.6667 10.0001C16.6667 13.682 13.6819 16.6667 10 16.6667C6.3181 16.6667 3.33333 13.682 3.33333 10.0001Z" fill="#667185"/>
</svg>