<svg width="20" height="20" viewBox="0 0 20 20" fill="none" xmlns="http://www.w3.org/2000/svg">
<path fill-rule="evenodd" clip-rule="evenodd" d="M10.0001 4.58343C7.92906 4.58343 6.25013 6.26236 6.25013 8.33343C6.25013 10.4045 7.92906 12.0834 10.0001 12.0834C12.0712 12.0834 13.7501 10.4045 13.7501 8.33343C13.7501 6.26236 12.0712 4.58343 10.0001 4.58343ZM7.91679 8.33343C7.91679 7.18283 8.84953 6.25009 10.0001 6.25009C11.1507 6.25009 12.0835 7.18283 12.0835 8.33343C12.0835 9.48402 11.1507 10.4168 10.0001 10.4168C8.84953 10.4168 7.91679 9.48402 7.91679 8.33343Z" fill="#667185"/>
<path fill-rule="evenodd" clip-rule="evenodd" d="M6.50783 2.99342C8.62259 1.58357 11.3777 1.58357 13.4924 2.99342C16.3515 4.89947 17.1542 8.74594 15.296 11.6364L12.1031 16.6032C11.119 18.134 8.88127 18.134 7.89718 16.6032L4.70421 11.6364C2.84607 8.74594 3.64875 4.89947 6.50783 2.99342ZM7.43233 4.38017C8.98726 3.34355 11.013 3.34355 12.5679 4.38017C14.6701 5.78164 15.2603 8.60985 13.8941 10.7351L10.7011 15.702C10.3731 16.2122 9.62718 16.2122 9.29915 15.702L6.10618 10.7351C4.73993 8.60985 5.33012 5.78164 7.43233 4.38017Z" fill="#667185"/>
</svg>