<svg xmlns="http://www.w3.org/2000/svg" style="display: none;">
  <!-- Full Star -->
  <symbol id="full-star" viewBox="0 0 18 16">
    <path d="M7.55728 0.875796C8.22193 -0.18093 9.77775 -0.180929 10.4424 0.875797L12.0498 3.43142C12.2836 3.80322 12.6551 4.07003 13.0851 4.17499L16.0405 4.89645C17.2626 5.19477 17.7434 6.65748 16.9321 7.60889L14.9701 9.90981C14.6846 10.2446 14.5427 10.6763 14.5746 11.1129L14.7938 14.1144C14.8844 15.3555 13.6257 16.2595 12.4597 15.7908L9.6397 14.6573C9.22944 14.4923 8.77024 14.4923 8.35998 14.6573L5.53999 15.7908C4.37395 16.2595 3.11526 15.3555 3.20589 14.1144L3.42506 11.1129C3.45694 10.6763 3.31504 10.2446 3.0296 9.90981L1.06758 7.60889C0.256302 6.65748 0.737077 5.19477 1.95913 4.89645L4.91458 4.17499C5.34454 4.07003 5.71604 3.80322 5.94989 3.43142L7.55728 0.875796Z" fill="#F5B546"/>
  </symbol>
  
  <!-- Half Star -->
  <symbol id="half-star" viewBox="0 0 18 16">
    <path d="M7.55728 0.875796C8.22193 -0.18093 9.77775 -0.180929 10.4424 0.875797L12.0498 3.43142C12.2836 3.80322 12.6551 4.07003 13.0851 4.17499L16.0405 4.89645C17.2626 5.19477 17.7434 6.65748 16.9321 7.60889L14.9701 9.90981C14.6846 10.2446 14.5427 10.6763 14.5746 11.1129L14.7938 14.1144C14.8844 15.3555 13.6257 16.2595 12.4597 15.7908L9.6397 14.6573C9.22944 14.4923 8.77024 14.4923 8.35998 14.6573L5.53999 15.7908C4.37395 16.2595 3.11526 15.3555 3.20589 14.1144L3.42506 11.1129C3.45694 10.6763 3.31504 10.2446 3.0296 9.90981L1.06758 7.60889C0.256302 6.65748 0.737077 5.19477 1.95913 4.89645L4.91458 4.17499C5.34454 4.07003 5.71604 3.80322 5.94989 3.43142L7.55728 0.875796Z" fill="url(#half-star-gradient)"/>
    <defs>
      <linearGradient id="half-star-gradient" x1="0" y1="0" x2="18" y2="0" gradientUnits="userSpaceOnUse">
        <stop offset="50%" stop-color="#F5B546"/>
        <stop offset="50%" stop-color="#E0E0E0"/>
      </linearGradient>
    </defs>
  </symbol>
  
  <!-- Empty Star -->
  <symbol id="empty-star" viewBox="0 0 18 16">
    <path d="M7.55728 0.875796C8.22193 -0.18093 9.77775 -0.180929 10.4424 0.875797L12.0498 3.43142C12.2836 3.80322 12.6551 4.07003 13.0851 4.17499L16.0405 4.89645C17.2626 5.19477 17.7434 6.65748 16.9321 7.60889L14.9701 9.90981C14.6846 10.2446 14.5427 10.6763 14.5746 11.1129L14.7938 14.1144C14.8844 15.3555 13.6257 16.2595 12.4597 15.7908L9.6397 14.6573C9.22944 14.4923 8.77024 14.4923 8.35998 14.6573L5.53999 15.7908C4.37395 16.2595 3.11526 15.3555 3.20589 14.1144L3.42506 11.1129C3.45694 10.6763 3.31504 10.2446 3.0296 9.90981L1.06758 7.60889C0.256302 6.65748 0.737077 5.19477 1.95913 4.89645L4.91458 4.17499C5.34454 4.07003 5.71604 3.80322 5.94989 3.43142L7.55728 0.875796Z" fill="#E0E0E0"/>
  </symbol>
</svg>