<svg width="40" height="41" viewBox="0 0 40 41" fill="none" xmlns="http://www.w3.org/2000/svg">
<rect x="0.5" y="1" width="39" height="39" rx="19.5" fill="white"/>
<rect x="0.5" y="1" width="39" height="39" rx="19.5" stroke="#E4E7EC"/>
<path d="M20.8333 12.1666C20.8333 11.7063 20.4602 11.3333 20 11.3333C19.5398 11.3333 19.1667 11.7063 19.1667 12.1666V13.4166C19.1667 13.8768 19.5398 14.2499 20 14.2499C20.4602 14.2499 20.8333 13.8768 20.8333 13.4166V12.1666Z" fill="black"/>
<path fill-rule="evenodd" clip-rule="evenodd" d="M14.1667 20.4999C14.1667 17.2783 16.7783 14.6666 20 14.6666C23.2217 14.6666 25.8333 17.2783 25.8333 20.4999C25.8333 23.7216 23.2217 26.3333 20 26.3333C16.7783 26.3333 14.1667 23.7216 14.1667 20.4999ZM20 16.3333C17.6988 16.3333 15.8333 18.1987 15.8333 20.4999C15.8333 22.8011 17.6988 24.6666 20 24.6666C22.3012 24.6666 24.1667 22.8011 24.1667 20.4999C24.1667 18.1987 22.3012 16.3333 20 16.3333Z" fill="black"/>
<path d="M20 26.3333C20.4602 26.3333 20.8333 26.7063 20.8333 27.1666V28.4166C20.8333 28.8768 20.4602 29.2499 20 29.2499C19.5398 29.2499 19.1667 28.8768 19.1667 28.4166V27.1666C19.1667 26.7063 19.5398 26.3333 20 26.3333Z" fill="black"/>
<path d="M25.4115 23.4166C25.6417 23.018 26.1513 22.8814 26.5499 23.1116L27.6324 23.7366C28.031 23.9667 28.1676 24.4763 27.9374 24.8749C27.7073 25.2735 27.1977 25.4101 26.7991 25.1799L25.7166 24.5549C25.318 24.3248 25.1814 23.8152 25.4115 23.4166Z" fill="black"/>
<path d="M25.7166 16.4449C25.318 16.675 25.1814 17.1847 25.4115 17.5833C25.6417 17.9818 26.1513 18.1184 26.5499 17.8883L27.6324 17.2633C28.031 17.0332 28.1676 16.5235 27.9374 16.1249C27.7073 15.7263 27.1977 15.5898 26.7991 15.8199L25.7166 16.4449Z" fill="black"/>
<path d="M13.1999 15.6116C12.8013 15.3814 12.2916 15.518 12.0615 15.9166C11.8314 16.3152 11.968 16.8248 12.3665 17.0549L13.4491 17.6799C13.8476 17.9101 14.3573 17.7735 14.5874 17.3749C14.8175 16.9763 14.681 16.4667 14.2824 16.2366L13.1999 15.6116Z" fill="black"/>
<path d="M12.0615 25.0833C11.8314 24.6847 11.968 24.175 12.3665 23.9449L13.4491 23.3199C13.8476 23.0898 14.3573 23.2263 14.5874 23.6249C14.8175 24.0235 14.681 24.5332 14.2824 24.7633L13.1999 25.3883C12.8013 25.6184 12.2916 25.4818 12.0615 25.0833Z" fill="black"/>
</svg>