<svg width="40" height="41" viewBox="0 0 40 41" fill="none" xmlns="http://www.w3.org/2000/svg">
<rect x="0.5" y="1" width="39" height="39" rx="19.5" fill="white"/>
<rect x="0.5" y="1" width="39" height="39" rx="19.5" stroke="#E4E7EC"/>
<path d="M20.8333 14.6666C20.8333 14.2063 20.4602 13.8333 20 13.8333C19.5398 13.8333 19.1667 14.2063 19.1667 14.6666V23.8333C19.1667 24.2935 19.5398 24.6666 20 24.6666C20.4602 24.6666 20.8333 24.2935 20.8333 23.8333V14.6666Z" fill="black"/>
<path fill-rule="evenodd" clip-rule="evenodd" d="M20 11.3333C18.3215 11.3333 16.9608 12.694 16.9608 14.3725V20.4306C15.7649 21.3742 15 22.8585 15 24.5187C15 27.3342 17.2114 29.6666 20 29.6666C22.7886 29.6666 25 27.3342 25 24.5187C25 22.8585 24.2351 21.3742 23.0392 20.4306V14.3725C23.0392 12.694 21.6785 11.3333 20 11.3333ZM16.6667 24.5187C16.6667 23.35 17.2165 22.324 18.0509 21.6944C18.3821 21.4446 18.6275 21.038 18.6275 20.5585V14.3725C18.6275 13.6144 19.242 12.9999 20 12.9999C20.758 12.9999 21.3725 13.6144 21.3725 14.3725V20.5585C21.3725 21.038 21.6179 21.4446 21.9491 21.6944C22.7835 22.324 23.3333 23.35 23.3333 24.5187C23.3333 26.469 21.8138 27.9999 20 27.9999C18.1862 27.9999 16.6667 26.469 16.6667 24.5187Z" fill="black"/>
</svg>