<svg width="20" height="20" viewBox="0 0 20 20" fill="none" xmlns="http://www.w3.org/2000/svg">
<path fill-rule="evenodd" clip-rule="evenodd" d="M9.1665 1.66675C5.02437 1.66675 1.6665 5.02461 1.6665 9.16675C1.6665 13.3089 5.02437 16.6667 9.1665 16.6667C10.9373 16.6667 12.5649 16.053 13.8479 15.0267L16.9106 18.0893C17.236 18.4148 17.7637 18.4148 18.0891 18.0893C18.4145 17.7639 18.4145 17.2363 18.0891 16.9108L15.0264 13.8482C16.0528 12.5651 16.6665 10.9376 16.6665 9.16675C16.6665 5.02461 13.3086 1.66675 9.1665 1.66675ZM3.33317 9.16675C3.33317 5.94509 5.94484 3.33341 9.1665 3.33341C12.3882 3.33341 14.9998 5.94509 14.9998 9.16675C14.9998 12.3884 12.3882 15.0001 9.1665 15.0001C5.94484 15.0001 3.33317 12.3884 3.33317 9.16675Z" fill="white"/>
</svg>