<svg width="224" height="40" viewBox="0 0 224 40" fill="none" xmlns="http://www.w3.org/2000/svg">
<path d="M38.3945 13.2195L38.4032 13.0905H38.5227V10.8404V10.7522L38.4405 10.7202C38.0296 10.5604 37.5327 10.4985 37.014 10.4985C34.9506 10.4985 33.3444 11.4534 32.5236 13.1174V10.8706V10.7417H32.3947H29.8752H29.7462V10.8706V26.2569V26.3859H29.8752H32.3947H32.5236V26.2569V18.3814C32.5236 16.5903 32.9471 15.2804 33.7172 14.4192C34.4851 13.5605 35.6156 13.1281 37.0744 13.1281C37.4804 13.1281 37.8622 13.153 38.2647 13.2036V13.2195H38.3937H38.3945Z" fill="#101928" stroke="#101928" stroke-width="0.257966"/>
<path d="M54.4437 26.3868H54.5727V26.2578V11.0005V10.8716V10.8708H54.4437V10.7426H51.9243H51.7953V10.8716V13.1621C50.7768 11.4104 48.6919 10.3166 46.3146 10.3166C42.0609 10.3166 38.9563 13.7628 38.9563 18.5643C38.9563 23.3658 42.0609 26.8128 46.3146 26.8128C48.6919 26.8128 50.7768 25.719 51.7953 23.9673V26.2578V26.3868H51.9243H54.4437ZM50.507 14.5131L50.507 14.5131L50.5083 14.5146C51.4432 15.5508 51.9153 16.9168 51.9153 18.5635C51.9153 20.2102 51.4432 21.5762 50.5083 22.6124L50.507 22.6139C49.6037 23.6477 48.3805 24.1816 46.8845 24.1816C45.3892 24.1816 44.1653 23.6482 43.2311 22.6131C42.3257 21.5765 41.8537 20.2098 41.8537 18.5635C41.8537 16.9172 42.3257 15.5505 43.2312 14.5139C44.1653 13.4788 45.3892 12.9454 46.8845 12.9454C48.3805 12.9454 49.6037 13.4793 50.507 14.5131Z" fill="#101928" stroke="#101928" stroke-width="0.257966"/>
<path d="M71.0057 10.8708V10.7419H70.8767H70.8751H68.3556H68.2266V10.8708V19.5976C68.2266 20.8395 67.7463 21.8761 66.9347 22.6034C66.1219 23.3318 64.9693 23.7565 63.6163 23.7565C62.4541 23.7565 61.6273 23.4441 61.0866 22.7991C60.5416 22.149 60.2657 21.1366 60.2657 19.689V10.8708V10.7419H60.1367H57.6173H57.4883V10.8708V20.297C57.4883 22.2492 57.9964 23.7744 58.9511 24.8126C59.9071 25.8523 61.2949 26.3861 63.0171 26.3861C65.3347 26.3861 67.2367 25.4501 68.2274 23.7502V24.7669C68.2274 26.6183 67.782 27.9891 66.9671 28.896C66.1542 29.8008 64.956 30.2634 63.4073 30.2634C61.6361 30.2634 59.9283 29.6352 58.7249 28.5336L58.6235 28.4408L58.5373 28.5479L57.0678 30.3727L56.9964 30.4613L57.0754 30.5432C58.5159 32.0348 60.893 32.8938 63.4677 32.8938C65.8335 32.8938 67.7235 32.1862 69.0211 30.8047C70.3176 29.4244 71.0057 27.3893 71.0057 24.7677V10.8708Z" fill="#101928" stroke="#101928" stroke-width="0.257966"/>
<path d="M87.2787 26.3869H87.4077V26.2579V26.2571V16.4049C87.4077 14.4835 86.9148 12.9585 85.968 11.9128C85.0195 10.8651 83.6314 10.3158 81.8789 10.3158C79.5683 10.3158 77.6946 11.2468 76.729 12.9385V10.8708V10.7418H76.6H74.0805H73.9515V10.8708V26.2579V26.3869H74.0805H76.6H76.729V26.2579V17.1051C76.729 15.8472 77.2026 14.8107 78.0028 14.0877C78.8042 13.3635 79.9416 12.9462 81.2797 12.9462C82.4571 12.9462 83.2834 13.2589 83.8202 13.9033C84.3615 14.5532 84.6303 15.5655 84.6303 17.0137V26.2579V26.3869H84.7593H87.2787Z" fill="#101928" stroke="#101928" stroke-width="0.257966"/>
<path d="M105.336 26.3868H105.465V26.2578V11.0005V10.8716V10.8708H105.336V10.7426H102.817H102.688V10.8716V13.1621C101.669 11.4104 99.5845 10.3166 97.2072 10.3166C92.9535 10.3166 89.8489 13.7628 89.8489 18.5643C89.8489 23.3658 92.9535 26.8128 97.2072 26.8128C99.5845 26.8128 101.669 25.719 102.688 23.9673V26.2578V26.3868H102.817H105.336ZM101.4 14.5131L101.4 14.5131L101.401 14.5146C102.336 15.5508 102.808 16.9168 102.808 18.5635C102.808 20.2102 102.336 21.5762 101.401 22.6124L101.4 22.6139C100.496 23.6477 99.2731 24.1816 97.7771 24.1816C96.2818 24.1816 95.0579 23.6482 94.1237 22.6131C93.2183 21.5765 92.7463 20.2098 92.7463 18.5635C92.7463 16.9172 93.2183 15.5505 94.1237 14.5139C95.0579 13.4788 96.2818 12.9454 97.7771 12.9454C99.2731 12.9454 100.496 13.4793 101.4 14.5131Z" fill="#101928" stroke="#101928" stroke-width="0.257966"/>
<path d="M116.903 10.8708V10.7419H116.774H114.255H114.253H114.124V10.8708V20.5108C114.124 22.3672 114.788 23.9454 115.96 25.0592C117.131 26.1725 118.8 26.8129 120.792 26.8129C122.785 26.8129 124.454 26.1725 125.625 25.0592C126.797 23.9454 127.461 22.3672 127.461 20.5108V10.8708V10.7419H127.332H124.813H124.684V10.8708V20.3582C124.684 21.6109 124.324 22.562 123.669 23.2004C123.014 23.8394 122.045 24.1825 120.793 24.1825C119.541 24.1825 118.573 23.8394 117.918 23.2004C117.263 22.562 116.903 21.6109 116.903 20.3582V10.8708Z" fill="#101928" stroke="#101928" stroke-width="0.257966"/>
<path d="M130.708 10.7419H130.579V10.8708V26.2579V26.3869H130.708H133.228H133.357V26.2579V10.8708V10.7419H133.228H130.708Z" fill="#101928" stroke="#101928" stroke-width="0.257966"/>
<path d="M18.6036 21.2666L17.2532 19.9162C17.2191 19.8821 17.231 19.8248 17.2747 19.8058C17.7516 19.5999 18.1974 19.3345 18.6036 19.0205C18.749 18.9077 18.8889 18.7892 19.0232 18.6644C19.4151 18.3004 19.7592 17.8864 20.0453 17.4317C20.0461 17.4301 20.0469 17.4293 20.0477 17.4278C20.221 17.152 20.3736 16.8611 20.5023 16.5583C20.8131 15.8271 20.9863 15.0235 20.9895 14.1795C20.9895 14.1795 20.9895 14.1787 20.9895 14.1779C20.9895 14.1699 20.9895 14.162 20.9895 14.154C20.9895 13.3108 20.8202 12.508 20.5134 11.776C20.4109 11.5304 20.2925 11.2928 20.1598 11.0647C20.1598 11.0631 20.1582 11.0623 20.1582 11.0615C19.5613 10.0362 18.6767 9.20013 17.6157 8.66206C17.6117 8.65967 17.6069 8.65729 17.6029 8.6557C16.7819 8.24162 15.3942 8.00636 14.4135 8C14.3999 8 14.849 8 14.8355 8C14.822 8 14.8093 8 14.7958 8H1.83357C0.821015 8 0 8.82101 0 9.83357V22.9078C0 23.3314 0.0429185 23.7455 0.124782 24.1453C0.124782 24.1461 0.124782 24.1469 0.124782 24.1485C0.277381 24.894 0.565093 25.591 0.960897 26.2117C0.960897 26.2133 0.962487 26.2141 0.963282 26.2157C1.62613 27.2545 2.59259 28.0811 3.73709 28.5699C3.74106 28.5715 3.74503 28.5731 3.74901 28.5746C3.75775 28.5786 3.76729 28.5826 3.77603 28.5866C4.36497 28.8337 5 28.9911 5.66524 29.0436C5.82658 29.0563 5.98872 29.0626 6.15324 29.0626C7.00207 29.0626 7.81037 28.891 8.54555 28.5802C9.06454 28.3608 9.54777 28.0723 9.98332 27.7258C9.98411 27.7258 9.98491 27.725 9.9857 27.7242C9.99365 27.7179 10.0024 27.7115 10.0103 27.7044C10.0127 27.7028 10.0151 27.7004 10.0175 27.6988C10.581 27.2434 11.0626 26.691 11.4362 26.0663C11.9655 25.1817 12.2795 24.154 12.3049 23.0548V23.0525C12.3057 23.0048 12.3065 22.9571 12.3065 22.9094C12.3065 22.8617 12.3065 22.814 12.3049 22.7663V20.5688C12.3049 20.4742 12.4193 20.4265 12.4861 20.4933L18.0591 26.0663L19.3634 27.3705C19.965 27.9722 20.9927 27.5462 20.9927 26.6958V24.3408C20.9927 23.9053 20.8194 23.4872 20.5111 23.1788L18.6004 21.2682L18.6036 21.2666ZM14.8331 16.5583H8.96281C8.73312 16.5583 8.54634 16.7442 8.54634 16.9747V22.9595V22.9603C8.47084 24.6389 6.78192 25.7261 5.23129 25.0768C4.39358 24.7263 3.8269 23.918 3.77603 23.0032V12.1432C3.77603 11.9429 3.93896 11.78 4.13925 11.78L9.15753 11.7768C9.15753 11.7768 9.15753 11.7784 9.15674 11.7792C10.2098 11.7792 11.2971 11.7792 12.3065 11.7792C13.2491 11.7792 14.1242 11.7792 14.8395 11.7808C16.1342 11.7824 17.2024 12.8601 17.2071 14.1509C17.2119 15.4742 16.162 16.54 14.8331 16.5591V16.5583Z" fill="#E8562E"/>
</svg>